<svg width="458" height="87" viewBox="0 0 458 87" fill="none" xmlns="http://www.w3.org/2000/svg">
<ellipse cx="443.5" cy="74.5" rx="14.5" ry="12.5" fill="white"/>
<mask id="path-2-outside-1_1_2426" maskUnits="userSpaceOnUse" x="8" y="-3" width="421" height="88" fill="black">
<rect fill="white" x="8" y="-3" width="421" height="88"/>
<path d="M10.8398 4.68164H51.6113C56.5918 4.68164 60.9212 5.21875 64.5996 6.29297C68.3105 7.33464 71.3867 8.7832 73.8281 10.6387C76.2695 12.4941 78.0762 14.7077 79.248 17.2793C80.4525 19.8184 81.0547 22.569 81.0547 25.5312C81.0547 30.3815 79.5247 34.6296 76.4648 38.2754C79.9805 40.3587 82.6009 43.0605 84.3262 46.3809C86.0514 49.7012 86.9141 53.4772 86.9141 57.709C86.9141 61.2572 86.3118 64.4635 85.1074 67.3281C83.9355 70.1927 82.1289 72.6504 79.6875 74.7012C77.2786 76.7194 74.2188 78.2819 70.5078 79.3887C66.8294 80.4629 62.4837 81 57.4707 81H10.8398V4.68164ZM57.5684 33.9785C58.903 33.9785 60.2051 34.0273 61.4746 34.125C63.6556 32.0417 64.7461 29.6654 64.7461 26.9961C64.7461 24.2292 63.6556 22.097 61.4746 20.5996C59.3262 19.0697 56.1686 18.3047 52.002 18.3047H26.3184V33.9785H57.5684ZM57.8613 67.5234C62.028 67.5234 65.1855 66.6283 67.334 64.8379C69.515 63.0475 70.6055 60.5247 70.6055 57.2695C70.6055 54.0143 69.515 51.4753 67.334 49.6523C65.1855 47.8294 62.028 46.918 57.8613 46.918H26.3184V67.5234H57.8613ZM92.8301 23.334H107.234V51.459C107.234 54.1283 107.527 56.5697 108.113 58.7832C108.699 60.9642 109.692 62.8359 111.092 64.3984C112.524 65.9609 114.412 67.1816 116.756 68.0605C119.132 68.9069 122.078 69.3301 125.594 69.3301C127.254 69.3301 128.93 69.151 130.623 68.793C132.348 68.4349 133.992 67.9466 135.555 67.3281C137.117 66.6771 138.566 65.9121 139.9 65.0332C141.268 64.1543 142.439 63.194 143.416 62.1523V23.334H157.869V81H143.416V76.0684C139.868 78.1842 136.303 79.6979 132.723 80.6094C129.142 81.5208 125.74 81.9766 122.518 81.9766C117.244 81.9766 112.719 81.3418 108.943 80.0723C105.2 78.8027 102.124 76.9635 99.7148 74.5547C97.3385 72.1133 95.597 69.1348 94.4902 65.6191C93.3835 62.071 92.8301 58.0345 92.8301 53.5098V23.334ZM175.846 15.5215C174.413 15.5215 173.111 15.3262 171.939 14.9355C170.8 14.5124 169.824 13.959 169.01 13.2754C168.196 12.5592 167.561 11.7454 167.105 10.834C166.682 9.88997 166.471 8.89714 166.471 7.85547C166.471 6.78125 166.682 5.78841 167.105 4.87695C167.561 3.93294 168.196 3.11914 169.01 2.43555C169.824 1.75195 170.8 1.21484 171.939 0.824219C173.111 0.401042 174.413 0.189453 175.846 0.189453C177.311 0.189453 178.613 0.401042 179.752 0.824219C180.924 1.21484 181.917 1.75195 182.73 2.43555C183.544 3.11914 184.163 3.93294 184.586 4.87695C185.042 5.78841 185.27 6.78125 185.27 7.85547C185.27 8.89714 185.042 9.88997 184.586 10.834C184.163 11.7454 183.544 12.5592 182.73 13.2754C181.917 13.959 180.924 14.5124 179.752 14.9355C178.613 15.3262 177.311 15.5215 175.846 15.5215ZM168.619 23.3828H183.072V81H168.619V23.3828ZM194.018 -0.00585938H208.471V81H194.018V-0.00585938ZM214.582 52.4355C214.582 47.8457 215.445 43.7116 217.17 40.0332C218.895 36.3223 221.271 33.1647 224.299 30.5605C227.359 27.9238 230.972 25.9056 235.139 24.5059C239.338 23.0736 243.879 22.3574 248.762 22.3574C250.845 22.3574 252.896 22.4876 254.914 22.748C256.965 23.0085 258.918 23.3665 260.773 23.8223C262.661 24.278 264.419 24.8314 266.047 25.4824C267.707 26.1009 269.172 26.7845 270.441 27.5332V-0.00585938H284.895V81H270.441V75.5801C269.172 76.459 267.674 77.2891 265.949 78.0703C264.224 78.8516 262.368 79.5352 260.383 80.1211C258.397 80.707 256.33 81.1628 254.182 81.4883C252.066 81.8464 249.966 82.0254 247.883 82.0254C243 82.0254 238.508 81.3092 234.406 79.877C230.337 78.4447 226.838 76.4264 223.908 73.8223C220.979 71.2181 218.684 68.1094 217.023 64.4961C215.396 60.8503 214.582 56.8301 214.582 52.4355ZM229.768 52.4355C229.768 54.7467 230.223 56.9277 231.135 58.9785C232.079 61.0293 233.413 62.8359 235.139 64.3984C236.896 65.9284 238.996 67.1491 241.438 68.0605C243.911 68.9395 246.678 69.3789 249.738 69.3789C251.691 69.3789 253.645 69.1999 255.598 68.8418C257.551 68.4512 259.423 67.9141 261.213 67.2305C263.036 66.5469 264.729 65.7168 266.291 64.7402C267.886 63.7637 269.27 62.6732 270.441 61.4688V41.498C268.977 40.3262 267.43 39.3333 265.803 38.5195C264.175 37.7057 262.515 37.0384 260.822 36.5176C259.13 35.9967 257.421 35.6224 255.695 35.3945C253.97 35.1341 252.294 35.0039 250.666 35.0039C247.346 35.0039 244.383 35.4596 241.779 36.3711C239.208 37.25 237.027 38.4707 235.236 40.0332C233.479 41.5957 232.128 43.4349 231.184 45.5508C230.24 47.6667 229.768 49.9616 229.768 52.4355ZM291.885 62.8359C291.885 60.069 292.487 57.5462 293.691 55.2676C294.896 52.9889 296.702 51.0358 299.111 49.4082C301.52 47.748 304.515 46.4785 308.096 45.5996C311.709 44.6882 315.908 44.2324 320.693 44.2324C324.242 44.2324 327.969 44.4928 331.875 45.0137C335.814 45.5345 339.867 46.332 344.033 47.4062C343.87 45.5833 343.317 43.9069 342.373 42.377C341.429 40.8145 340.111 39.4798 338.418 38.373C336.758 37.2337 334.74 36.3548 332.363 35.7363C330.02 35.1178 327.35 34.8086 324.355 34.8086C322.728 34.8086 320.938 34.9062 318.984 35.1016C317.031 35.2969 315.013 35.5898 312.93 35.9805C310.846 36.3711 308.779 36.8594 306.729 37.4453C304.71 38.0312 302.822 38.7311 301.064 39.5449L296.67 27.6797C298.851 26.8984 301.178 26.1823 303.652 25.5312C306.159 24.8802 308.714 24.3268 311.318 23.8711C313.923 23.3828 316.527 23.0085 319.131 22.748C321.735 22.4876 324.258 22.3574 326.699 22.3574C337.474 22.3574 345.482 25.1081 350.723 30.6094C355.964 36.1107 358.584 44.5417 358.584 55.9023V81H344.131V75.5801C342.633 76.459 340.99 77.2891 339.199 78.0703C337.441 78.8516 335.521 79.5352 333.438 80.1211C331.354 80.707 329.108 81.1628 326.699 81.4883C324.323 81.8464 321.8 82.0254 319.131 82.0254C314.639 82.0254 310.684 81.5371 307.266 80.5605C303.88 79.584 301.048 78.2331 298.77 76.5078C296.491 74.7826 294.766 72.7643 293.594 70.4531C292.454 68.1094 291.885 65.5703 291.885 62.8359ZM307.119 62.3477C307.119 63.2917 307.363 64.2031 307.852 65.082C308.34 65.9284 309.121 66.6934 310.195 67.377C311.27 68.028 312.637 68.5651 314.297 68.9883C315.99 69.3789 318.024 69.5742 320.4 69.5742C322.939 69.5742 325.397 69.3464 327.773 68.8906C330.15 68.4349 332.363 67.8327 334.414 67.084C336.465 66.3353 338.32 65.4727 339.98 64.4961C341.641 63.5195 343.024 62.5104 344.131 61.4688V58.9297C341.917 58.3112 339.72 57.7904 337.539 57.3672C335.391 56.944 333.324 56.6185 331.338 56.3906C329.385 56.1302 327.529 55.9512 325.771 55.8535C324.046 55.7559 322.533 55.707 321.23 55.707C318.529 55.707 316.283 55.8861 314.492 56.2441C312.702 56.6022 311.253 57.0905 310.146 57.709C309.04 58.2949 308.258 58.9948 307.803 59.8086C307.347 60.6224 307.119 61.4688 307.119 62.3477ZM397.508 35.3945H367.967V23.3828H424.314L388.768 68.9883H422.361V81H362.205L397.508 35.3945Z"/>
</mask>
<path d="M10.8398 4.68164H51.6113C56.5918 4.68164 60.9212 5.21875 64.5996 6.29297C68.3105 7.33464 71.3867 8.7832 73.8281 10.6387C76.2695 12.4941 78.0762 14.7077 79.248 17.2793C80.4525 19.8184 81.0547 22.569 81.0547 25.5312C81.0547 30.3815 79.5247 34.6296 76.4648 38.2754C79.9805 40.3587 82.6009 43.0605 84.3262 46.3809C86.0514 49.7012 86.9141 53.4772 86.9141 57.709C86.9141 61.2572 86.3118 64.4635 85.1074 67.3281C83.9355 70.1927 82.1289 72.6504 79.6875 74.7012C77.2786 76.7194 74.2188 78.2819 70.5078 79.3887C66.8294 80.4629 62.4837 81 57.4707 81H10.8398V4.68164ZM57.5684 33.9785C58.903 33.9785 60.2051 34.0273 61.4746 34.125C63.6556 32.0417 64.7461 29.6654 64.7461 26.9961C64.7461 24.2292 63.6556 22.097 61.4746 20.5996C59.3262 19.0697 56.1686 18.3047 52.002 18.3047H26.3184V33.9785H57.5684ZM57.8613 67.5234C62.028 67.5234 65.1855 66.6283 67.334 64.8379C69.515 63.0475 70.6055 60.5247 70.6055 57.2695C70.6055 54.0143 69.515 51.4753 67.334 49.6523C65.1855 47.8294 62.028 46.918 57.8613 46.918H26.3184V67.5234H57.8613ZM92.8301 23.334H107.234V51.459C107.234 54.1283 107.527 56.5697 108.113 58.7832C108.699 60.9642 109.692 62.8359 111.092 64.3984C112.524 65.9609 114.412 67.1816 116.756 68.0605C119.132 68.9069 122.078 69.3301 125.594 69.3301C127.254 69.3301 128.93 69.151 130.623 68.793C132.348 68.4349 133.992 67.9466 135.555 67.3281C137.117 66.6771 138.566 65.9121 139.9 65.0332C141.268 64.1543 142.439 63.194 143.416 62.1523V23.334H157.869V81H143.416V76.0684C139.868 78.1842 136.303 79.6979 132.723 80.6094C129.142 81.5208 125.74 81.9766 122.518 81.9766C117.244 81.9766 112.719 81.3418 108.943 80.0723C105.2 78.8027 102.124 76.9635 99.7148 74.5547C97.3385 72.1133 95.597 69.1348 94.4902 65.6191C93.3835 62.071 92.8301 58.0345 92.8301 53.5098V23.334ZM175.846 15.5215C174.413 15.5215 173.111 15.3262 171.939 14.9355C170.8 14.5124 169.824 13.959 169.01 13.2754C168.196 12.5592 167.561 11.7454 167.105 10.834C166.682 9.88997 166.471 8.89714 166.471 7.85547C166.471 6.78125 166.682 5.78841 167.105 4.87695C167.561 3.93294 168.196 3.11914 169.01 2.43555C169.824 1.75195 170.8 1.21484 171.939 0.824219C173.111 0.401042 174.413 0.189453 175.846 0.189453C177.311 0.189453 178.613 0.401042 179.752 0.824219C180.924 1.21484 181.917 1.75195 182.73 2.43555C183.544 3.11914 184.163 3.93294 184.586 4.87695C185.042 5.78841 185.27 6.78125 185.27 7.85547C185.27 8.89714 185.042 9.88997 184.586 10.834C184.163 11.7454 183.544 12.5592 182.73 13.2754C181.917 13.959 180.924 14.5124 179.752 14.9355C178.613 15.3262 177.311 15.5215 175.846 15.5215ZM168.619 23.3828H183.072V81H168.619V23.3828ZM194.018 -0.00585938H208.471V81H194.018V-0.00585938ZM214.582 52.4355C214.582 47.8457 215.445 43.7116 217.17 40.0332C218.895 36.3223 221.271 33.1647 224.299 30.5605C227.359 27.9238 230.972 25.9056 235.139 24.5059C239.338 23.0736 243.879 22.3574 248.762 22.3574C250.845 22.3574 252.896 22.4876 254.914 22.748C256.965 23.0085 258.918 23.3665 260.773 23.8223C262.661 24.278 264.419 24.8314 266.047 25.4824C267.707 26.1009 269.172 26.7845 270.441 27.5332V-0.00585938H284.895V81H270.441V75.5801C269.172 76.459 267.674 77.2891 265.949 78.0703C264.224 78.8516 262.368 79.5352 260.383 80.1211C258.397 80.707 256.33 81.1628 254.182 81.4883C252.066 81.8464 249.966 82.0254 247.883 82.0254C243 82.0254 238.508 81.3092 234.406 79.877C230.337 78.4447 226.838 76.4264 223.908 73.8223C220.979 71.2181 218.684 68.1094 217.023 64.4961C215.396 60.8503 214.582 56.8301 214.582 52.4355ZM229.768 52.4355C229.768 54.7467 230.223 56.9277 231.135 58.9785C232.079 61.0293 233.413 62.8359 235.139 64.3984C236.896 65.9284 238.996 67.1491 241.438 68.0605C243.911 68.9395 246.678 69.3789 249.738 69.3789C251.691 69.3789 253.645 69.1999 255.598 68.8418C257.551 68.4512 259.423 67.9141 261.213 67.2305C263.036 66.5469 264.729 65.7168 266.291 64.7402C267.886 63.7637 269.27 62.6732 270.441 61.4688V41.498C268.977 40.3262 267.43 39.3333 265.803 38.5195C264.175 37.7057 262.515 37.0384 260.822 36.5176C259.13 35.9967 257.421 35.6224 255.695 35.3945C253.97 35.1341 252.294 35.0039 250.666 35.0039C247.346 35.0039 244.383 35.4596 241.779 36.3711C239.208 37.25 237.027 38.4707 235.236 40.0332C233.479 41.5957 232.128 43.4349 231.184 45.5508C230.24 47.6667 229.768 49.9616 229.768 52.4355ZM291.885 62.8359C291.885 60.069 292.487 57.5462 293.691 55.2676C294.896 52.9889 296.702 51.0358 299.111 49.4082C301.52 47.748 304.515 46.4785 308.096 45.5996C311.709 44.6882 315.908 44.2324 320.693 44.2324C324.242 44.2324 327.969 44.4928 331.875 45.0137C335.814 45.5345 339.867 46.332 344.033 47.4062C343.87 45.5833 343.317 43.9069 342.373 42.377C341.429 40.8145 340.111 39.4798 338.418 38.373C336.758 37.2337 334.74 36.3548 332.363 35.7363C330.02 35.1178 327.35 34.8086 324.355 34.8086C322.728 34.8086 320.938 34.9062 318.984 35.1016C317.031 35.2969 315.013 35.5898 312.93 35.9805C310.846 36.3711 308.779 36.8594 306.729 37.4453C304.71 38.0312 302.822 38.7311 301.064 39.5449L296.67 27.6797C298.851 26.8984 301.178 26.1823 303.652 25.5312C306.159 24.8802 308.714 24.3268 311.318 23.8711C313.923 23.3828 316.527 23.0085 319.131 22.748C321.735 22.4876 324.258 22.3574 326.699 22.3574C337.474 22.3574 345.482 25.1081 350.723 30.6094C355.964 36.1107 358.584 44.5417 358.584 55.9023V81H344.131V75.5801C342.633 76.459 340.99 77.2891 339.199 78.0703C337.441 78.8516 335.521 79.5352 333.438 80.1211C331.354 80.707 329.108 81.1628 326.699 81.4883C324.323 81.8464 321.8 82.0254 319.131 82.0254C314.639 82.0254 310.684 81.5371 307.266 80.5605C303.88 79.584 301.048 78.2331 298.77 76.5078C296.491 74.7826 294.766 72.7643 293.594 70.4531C292.454 68.1094 291.885 65.5703 291.885 62.8359ZM307.119 62.3477C307.119 63.2917 307.363 64.2031 307.852 65.082C308.34 65.9284 309.121 66.6934 310.195 67.377C311.27 68.028 312.637 68.5651 314.297 68.9883C315.99 69.3789 318.024 69.5742 320.4 69.5742C322.939 69.5742 325.397 69.3464 327.773 68.8906C330.15 68.4349 332.363 67.8327 334.414 67.084C336.465 66.3353 338.32 65.4727 339.98 64.4961C341.641 63.5195 343.024 62.5104 344.131 61.4688V58.9297C341.917 58.3112 339.72 57.7904 337.539 57.3672C335.391 56.944 333.324 56.6185 331.338 56.3906C329.385 56.1302 327.529 55.9512 325.771 55.8535C324.046 55.7559 322.533 55.707 321.23 55.707C318.529 55.707 316.283 55.8861 314.492 56.2441C312.702 56.6022 311.253 57.0905 310.146 57.709C309.04 58.2949 308.258 58.9948 307.803 59.8086C307.347 60.6224 307.119 61.4688 307.119 62.3477ZM397.508 35.3945H367.967V23.3828H424.314L388.768 68.9883H422.361V81H362.205L397.508 35.3945Z" fill="#E64614"/>
<path d="M10.8398 4.68164V2.68164H8.83984V4.68164H10.8398ZM64.5996 6.29297L64.039 8.21278L64.049 8.21571L64.0591 8.21855L64.5996 6.29297ZM79.248 17.2793L77.4281 18.1086L77.4345 18.1226L77.441 18.1365L79.248 17.2793ZM76.4648 38.2754L74.9329 36.9896L73.418 38.7946L75.4452 39.996L76.4648 38.2754ZM85.1074 67.3281L83.2638 66.5529L83.26 66.5619L83.2563 66.5709L85.1074 67.3281ZM79.6875 74.7012L80.9719 76.2342L80.9739 76.2326L79.6875 74.7012ZM70.5078 79.3887L71.0685 81.3085L71.0794 81.3052L70.5078 79.3887ZM10.8398 81H8.83984V83H10.8398V81ZM61.4746 34.125L61.3212 36.1191L62.2109 36.1875L62.8561 35.5712L61.4746 34.125ZM61.4746 20.5996L60.3145 22.2287L60.3284 22.2387L60.3426 22.2484L61.4746 20.5996ZM26.3184 18.3047V16.3047H24.3184V18.3047H26.3184ZM26.3184 33.9785H24.3184V35.9785H26.3184V33.9785ZM67.334 64.8379L66.065 63.292L66.0593 63.2967L66.0536 63.3014L67.334 64.8379ZM67.334 49.6523L66.04 51.1774L66.0457 51.1822L66.0514 51.1869L67.334 49.6523ZM26.3184 46.918V44.918H24.3184V46.918H26.3184ZM26.3184 67.5234H24.3184V69.5234H26.3184V67.5234ZM10.8398 6.68164H51.6113V2.68164H10.8398V6.68164ZM51.6113 6.68164C56.4555 6.68164 60.5878 7.20491 64.039 8.21278L65.1603 4.37316C61.2547 3.23259 56.7281 2.68164 51.6113 2.68164V6.68164ZM64.0591 8.21855C67.5877 9.20903 70.421 10.5613 72.618 12.231L75.0383 9.04635C72.3525 7.00511 69.0334 5.46024 65.1401 4.36739L64.0591 8.21855ZM72.618 12.231C74.8191 13.9039 76.4048 15.863 77.4281 18.1086L81.068 16.45C79.7476 13.5523 77.7199 11.0844 75.0383 9.04635L72.618 12.231ZM77.441 18.1365C78.5115 20.3932 79.0547 22.8491 79.0547 25.5312H83.0547C83.0547 22.2889 82.3934 19.2435 81.0551 16.4221L77.441 18.1365ZM79.0547 25.5312C79.0547 29.921 77.6842 33.7115 74.9329 36.9896L77.9968 39.5611C81.3652 35.5477 83.0547 30.842 83.0547 25.5312H79.0547ZM75.4452 39.996C78.6702 41.9071 81.0141 44.3444 82.5515 47.303L86.1009 45.4587C84.1877 41.7767 81.2907 38.8104 77.4845 36.5548L75.4452 39.996ZM82.5515 47.303C84.1103 50.303 84.9141 53.7558 84.9141 57.709H88.9141C88.9141 53.1987 87.9926 49.0993 86.1009 45.4587L82.5515 47.303ZM84.9141 57.709C84.9141 61.0285 84.3514 63.9662 83.2638 66.5529L86.9511 68.1033C88.2723 64.9609 88.9141 61.4859 88.9141 57.709H84.9141ZM83.2563 66.5709C82.211 69.1262 80.6021 71.3209 78.4011 73.1698L80.9739 76.2326C83.6557 73.9799 85.6601 71.2592 86.9585 68.0854L83.2563 66.5709ZM78.4031 73.1681C76.2457 74.9756 73.4449 76.4257 69.9362 77.4721L71.0794 81.3052C74.9926 80.1382 78.3116 78.4632 80.9719 76.2342L78.4031 73.1681ZM69.9472 77.4689C66.497 78.4764 62.3489 79 57.4707 79V83C62.6186 83 67.1619 82.4493 71.0685 81.3085L69.9472 77.4689ZM57.4707 79H10.8398V83H57.4707V79ZM12.8398 81V4.68164H8.83984V81H12.8398ZM57.5684 35.9785C58.8542 35.9785 60.1051 36.0256 61.3212 36.1191L61.628 32.1309C60.3051 32.0291 58.9517 31.9785 57.5684 31.9785V35.9785ZM62.8561 35.5712C65.3757 33.1644 66.7461 30.285 66.7461 26.9961H62.7461C62.7461 29.0457 61.9355 30.919 60.0931 32.6788L62.8561 35.5712ZM66.7461 26.9961C66.7461 23.6061 65.3599 20.8411 62.6066 18.9508L60.3426 22.2484C61.9513 23.3529 62.7461 24.8522 62.7461 26.9961H66.7461ZM62.6348 18.9705C60.0025 17.096 56.3614 16.3047 52.002 16.3047V20.3047C55.9759 20.3047 58.6499 21.0433 60.3145 22.2287L62.6348 18.9705ZM52.002 16.3047H26.3184V20.3047H52.002V16.3047ZM24.3184 18.3047V33.9785H28.3184V18.3047H24.3184ZM26.3184 35.9785H57.5684V31.9785H26.3184V35.9785ZM57.8613 69.5234C62.2746 69.5234 65.9669 68.5806 68.6143 66.3743L66.0536 63.3014C64.4042 64.676 61.7814 65.5234 57.8613 65.5234V69.5234ZM68.603 66.3837C71.3209 64.1526 72.6055 61.0205 72.6055 57.2695H68.6055C68.6055 60.029 67.7091 61.9424 66.065 63.292L68.603 66.3837ZM72.6055 57.2695C72.6055 53.518 71.3213 50.3784 68.6166 48.1178L66.0514 51.1869C67.7087 52.5721 68.6055 54.5106 68.6055 57.2695H72.6055ZM68.6279 48.1273C65.9797 45.8803 62.2817 44.918 57.8613 44.918V48.918C61.7743 48.918 64.3914 49.7785 66.04 51.1774L68.6279 48.1273ZM57.8613 44.918H26.3184V48.918H57.8613V44.918ZM24.3184 46.918V67.5234H28.3184V46.918H24.3184ZM26.3184 69.5234H57.8613V65.5234H26.3184V69.5234ZM92.8301 23.334V21.334H90.8301V23.334H92.8301ZM107.234 23.334H109.234V21.334H107.234V23.334ZM108.113 58.7832L106.18 59.295L106.182 59.3021L108.113 58.7832ZM111.092 64.3984L109.602 65.7329L109.61 65.7415L109.617 65.7499L111.092 64.3984ZM116.756 68.0605L116.054 69.9332L116.069 69.939L116.085 69.9446L116.756 68.0605ZM130.623 68.793L130.217 66.8347L130.209 66.8363L130.623 68.793ZM135.555 67.3281L136.291 69.1877L136.307 69.1812L136.324 69.1743L135.555 67.3281ZM139.9 65.0332L138.819 63.3508L138.81 63.3568L138.8 63.3629L139.9 65.0332ZM143.416 62.1523L144.875 63.5202L145.416 62.9432V62.1523H143.416ZM143.416 23.334V21.334H141.416V23.334H143.416ZM157.869 23.334H159.869V21.334H157.869V23.334ZM157.869 81V83H159.869V81H157.869ZM143.416 81H141.416V83H143.416V81ZM143.416 76.0684H145.416V72.5471L142.392 74.3506L143.416 76.0684ZM108.943 80.0723L108.301 81.9663L108.306 81.968L108.943 80.0723ZM99.7148 74.5547L98.2816 75.9497L98.2911 75.9593L98.3006 75.9689L99.7148 74.5547ZM94.4902 65.6191L92.581 66.2147L92.5825 66.2197L94.4902 65.6191ZM92.8301 25.334H107.234V21.334H92.8301V25.334ZM105.234 23.334V51.459H109.234V23.334H105.234ZM105.234 51.459C105.234 54.2732 105.543 56.8895 106.18 59.295L110.047 58.2714C109.512 56.2498 109.234 53.9833 109.234 51.459H105.234ZM106.182 59.3021C106.843 61.7621 107.977 63.9193 109.602 65.7329L112.581 63.0639C111.407 61.7525 110.556 60.1662 110.045 58.2643L106.182 59.3021ZM109.617 65.7499C111.298 67.583 113.468 68.9637 116.054 69.9332L117.458 66.1879C115.356 65.3996 113.75 64.3389 112.566 63.047L109.617 65.7499ZM116.085 69.9446C118.743 70.8914 121.933 71.3301 125.594 71.3301V67.3301C122.224 67.3301 119.521 66.9224 117.427 66.1765L116.085 69.9446ZM125.594 71.3301C127.399 71.3301 129.214 71.1353 131.037 70.7497L130.209 66.8363C128.647 67.1668 127.109 67.3301 125.594 67.3301V71.3301ZM131.029 70.7512C132.862 70.3709 134.616 69.8505 136.291 69.1877L134.819 65.4685C133.368 66.0427 131.835 66.4989 130.217 66.8347L131.029 70.7512ZM136.324 69.1743C137.995 68.4779 139.555 67.6552 141 66.7035L138.8 63.3629C137.576 64.169 136.239 64.8762 134.785 65.482L136.324 69.1743ZM140.982 66.7156C142.469 65.7598 143.772 64.697 144.875 63.5202L141.957 60.7845C141.107 61.691 140.066 62.5488 138.819 63.3508L140.982 66.7156ZM145.416 62.1523V23.334H141.416V62.1523H145.416ZM143.416 25.334H157.869V21.334H143.416V25.334ZM155.869 23.334V81H159.869V23.334H155.869ZM157.869 79H143.416V83H157.869V79ZM145.416 81V76.0684H141.416V81H145.416ZM142.392 74.3506C138.99 76.3793 135.603 77.8125 132.229 78.6712L133.216 82.5476C137.004 81.5834 140.746 79.9892 144.44 77.7861L142.392 74.3506ZM132.229 78.6712C128.787 79.5475 125.552 79.9766 122.518 79.9766V83.9766C125.929 83.9766 129.497 83.4942 133.216 82.5476L132.229 78.6712ZM122.518 79.9766C117.395 79.9766 113.097 79.3588 109.581 78.1765L108.306 81.968C112.342 83.3248 117.093 83.9766 122.518 83.9766V79.9766ZM109.586 78.1782C106.086 76.9915 103.289 75.3 101.129 73.1405L98.3006 75.9689C100.959 78.6271 104.313 80.614 108.301 81.9663L109.586 78.1782ZM101.148 73.1597C99.0073 70.9604 97.4187 68.2609 96.3979 65.0186L92.5825 66.2197C93.7754 70.0087 95.6697 73.2662 98.2816 75.9497L101.148 73.1597ZM96.3995 65.0236C95.3643 61.7048 94.8301 57.8748 94.8301 53.5098H90.8301C90.8301 58.1942 91.4026 62.4371 92.581 66.2147L96.3995 65.0236ZM94.8301 53.5098V23.334H90.8301V53.5098H94.8301ZM171.939 14.9355L171.243 16.8104L171.275 16.8222L171.307 16.8329L171.939 14.9355ZM169.01 13.2754L167.689 14.7768L167.706 14.792L167.723 14.8068L169.01 13.2754ZM167.105 10.834L165.28 11.6521L165.298 11.6906L165.317 11.7284L167.105 10.834ZM167.105 4.87695L165.304 4.00745L165.298 4.02104L165.291 4.03473L167.105 4.87695ZM171.939 0.824219L172.588 2.71611L172.603 2.71084L172.619 2.70533L171.939 0.824219ZM179.752 0.824219L179.056 2.69907L179.087 2.71087L179.119 2.72159L179.752 0.824219ZM184.586 4.87695L182.761 5.69506L182.778 5.7336L182.797 5.77138L184.586 4.87695ZM184.586 10.834L182.785 9.96449L182.778 9.97808L182.772 9.99176L184.586 10.834ZM182.73 13.2754L184.017 14.8068L184.034 14.792L184.052 14.7768L182.73 13.2754ZM179.752 14.9355L180.401 16.8274L180.416 16.8222L180.431 16.8167L179.752 14.9355ZM168.619 23.3828V21.3828H166.619V23.3828H168.619ZM183.072 23.3828H185.072V21.3828H183.072V23.3828ZM183.072 81V83H185.072V81H183.072ZM168.619 81H166.619V83H168.619V81ZM175.846 13.5215C174.595 13.5215 173.51 13.351 172.572 13.0382L171.307 16.8329C172.712 17.3014 174.232 17.5215 175.846 17.5215V13.5215ZM172.636 13.0607C171.681 12.706 170.911 12.2606 170.296 11.744L167.723 14.8068C168.736 15.6574 169.919 16.3187 171.243 16.8104L172.636 13.0607ZM170.331 11.774C169.698 11.2171 169.228 10.606 168.894 9.93956L165.317 11.7284C165.895 12.8849 166.694 13.9014 167.689 14.7768L170.331 11.774ZM168.93 10.0159C168.623 9.33101 168.471 8.61716 168.471 7.85547H164.471C164.471 9.17711 164.741 10.4489 165.28 11.6521L168.93 10.0159ZM168.471 7.85547C168.471 7.05174 168.627 6.34883 168.919 5.71918L165.291 4.03473C164.737 5.22799 164.471 6.51076 164.471 7.85547H168.471ZM168.907 5.74645C169.238 5.06059 169.696 4.47136 170.296 3.96696L167.723 0.904137C166.696 1.76692 165.885 2.8053 165.304 4.00745L168.907 5.74645ZM170.296 3.96696C170.898 3.46143 171.651 3.03742 172.588 2.71611L171.291 -1.06767C169.949 -0.607732 168.749 0.0424776 167.723 0.904137L170.296 3.96696ZM172.619 2.70533C173.543 2.37162 174.611 2.18945 175.846 2.18945V-1.81055C174.216 -1.81055 172.68 -1.56954 171.26 -1.05689L172.619 2.70533ZM175.846 2.18945C177.12 2.18945 178.18 2.37371 179.056 2.69907L180.448 -1.05063C179.046 -1.57162 177.501 -1.81055 175.846 -1.81055V2.18945ZM179.119 2.72159C180.091 3.04526 180.852 3.46951 181.444 3.96696L184.017 0.904137C182.981 0.0343971 181.757 -0.615573 180.384 -1.07315L179.119 2.72159ZM181.444 3.96696C182.033 4.46194 182.465 5.03408 182.761 5.69506L186.411 4.05884C185.861 2.83181 185.055 1.77634 184.017 0.904137L181.444 3.96696ZM182.797 5.77138C183.106 6.39008 183.27 7.07447 183.27 7.85547H187.27C187.27 6.48803 186.977 5.18674 186.375 3.98253L182.797 5.77138ZM183.27 7.85547C183.27 8.59406 183.111 9.28986 182.785 9.96449L186.387 11.7035C186.973 10.4901 187.27 9.20022 187.27 7.85547H183.27ZM182.772 9.99176C182.474 10.6324 182.031 11.2264 181.409 11.774L184.052 14.7768C185.057 13.8921 185.851 12.8585 186.4 11.6762L182.772 9.99176ZM181.444 11.744C180.839 12.2526 180.061 12.6977 179.073 13.0544L180.431 16.8167C181.787 16.327 182.995 15.6654 184.017 14.8068L181.444 11.744ZM179.103 13.0437C178.212 13.3491 177.136 13.5215 175.846 13.5215V17.5215C177.485 17.5215 179.013 17.3032 180.401 16.8274L179.103 13.0437ZM168.619 25.3828H183.072V21.3828H168.619V25.3828ZM181.072 23.3828V81H185.072V23.3828H181.072ZM183.072 79H168.619V83H183.072V79ZM170.619 81V23.3828H166.619V81H170.619ZM194.018 -0.00585938V-2.00586H192.018V-0.00585938H194.018ZM208.471 -0.00585938H210.471V-2.00586H208.471V-0.00585938ZM208.471 81V83H210.471V81H208.471ZM194.018 81H192.018V83H194.018V81ZM194.018 1.99414H208.471V-2.00586H194.018V1.99414ZM206.471 -0.00585938V81H210.471V-0.00585938H206.471ZM208.471 79H194.018V83H208.471V79ZM196.018 81V-0.00585938H192.018V81H196.018ZM217.17 40.0332L218.981 40.8825L218.984 40.8764L217.17 40.0332ZM224.299 30.5605L225.603 32.0768L225.604 32.0756L224.299 30.5605ZM235.139 24.5059L235.776 26.4018L235.784 26.3988L235.139 24.5059ZM254.914 22.748L254.658 24.7316L254.662 24.7321L254.914 22.748ZM260.773 23.8223L260.296 25.7646L260.304 25.7664L260.773 23.8223ZM266.047 25.4824L265.304 27.3394L265.326 27.3482L265.349 27.3566L266.047 25.4824ZM270.441 27.5332L269.425 29.2559L272.441 31.0346V27.5332H270.441ZM270.441 -0.00585938V-2.00586H268.441V-0.00585938H270.441ZM284.895 -0.00585938H286.895V-2.00586H284.895V-0.00585938ZM284.895 81V83H286.895V81H284.895ZM270.441 81H268.441V83H270.441V81ZM270.441 75.5801H272.441V71.7629L269.303 73.9357L270.441 75.5801ZM260.383 80.1211L259.817 78.2029L260.383 80.1211ZM254.182 81.4883L253.882 79.5108L253.865 79.5134L253.848 79.5163L254.182 81.4883ZM234.406 79.877L233.742 81.7635L233.747 81.7651L234.406 79.877ZM223.908 73.8223L222.579 75.3171L223.908 73.8223ZM217.023 64.4961L215.197 65.3114L215.202 65.3213L215.206 65.3311L217.023 64.4961ZM231.135 58.9785L229.307 59.7908L229.312 59.8028L229.318 59.8148L231.135 58.9785ZM235.139 64.3984L233.796 65.8808L233.811 65.8941L233.826 65.907L235.139 64.3984ZM241.438 68.0605L240.738 69.9342L240.753 69.9398L240.768 69.9452L241.438 68.0605ZM255.598 68.8418L255.958 70.809L255.974 70.8061L255.99 70.803L255.598 68.8418ZM261.213 67.2305L260.511 65.3578L260.499 65.362L261.213 67.2305ZM266.291 64.7402L265.247 63.0345L265.239 63.0393L265.231 63.0442L266.291 64.7402ZM270.441 61.4688L271.875 62.8635L272.441 62.2812V61.4688H270.441ZM270.441 41.498H272.441V40.5368L271.691 39.9363L270.441 41.498ZM260.822 36.5176L260.234 38.4291L260.822 36.5176ZM255.695 35.3945L255.397 37.3721L255.415 37.3749L255.433 37.3773L255.695 35.3945ZM241.779 36.3711L242.426 38.2636L242.433 38.2612L242.44 38.2588L241.779 36.3711ZM235.236 40.0332L233.921 38.5264L233.914 38.5323L233.908 38.5384L235.236 40.0332ZM216.582 52.4355C216.582 48.101 217.395 44.2625 218.981 40.8825L215.359 39.1839C213.494 43.1606 212.582 47.5904 212.582 52.4355H216.582ZM218.984 40.8764C220.592 37.4169 222.797 34.4907 225.603 32.0768L222.995 29.0443C219.746 31.8387 217.199 35.2277 215.356 39.19L218.984 40.8764ZM225.604 32.0756C228.451 29.6223 231.833 27.7263 235.776 26.4017L234.502 22.61C230.111 24.0849 226.266 26.2253 222.993 29.0455L225.604 32.0756ZM235.784 26.3988C239.756 25.0442 244.077 24.3574 248.762 24.3574V20.3574C243.681 20.3574 238.92 21.103 234.493 22.6129L235.784 26.3988ZM248.762 24.3574C250.762 24.3574 252.727 24.4824 254.658 24.7316L255.17 20.7645C253.065 20.4929 250.929 20.3574 248.762 20.3574V24.3574ZM254.662 24.7321C256.643 24.9837 258.521 25.3284 260.296 25.7645L261.25 21.88C259.315 21.4046 257.286 21.0332 255.166 20.764L254.662 24.7321ZM260.304 25.7664C262.109 26.202 263.774 26.7275 265.304 27.3394L266.79 23.6255C265.064 22.9353 263.214 22.3539 261.243 21.8781L260.304 25.7664ZM265.349 27.3566C266.92 27.942 268.275 28.5775 269.425 29.2559L271.457 25.8105C270.069 24.9915 268.494 24.2599 266.745 23.6083L265.349 27.3566ZM272.441 27.5332V-0.00585938H268.441V27.5332H272.441ZM270.441 1.99414H284.895V-2.00586H270.441V1.99414ZM282.895 -0.00585938V81H286.895V-0.00585938H282.895ZM284.895 79H270.441V83H284.895V79ZM272.441 81V75.5801H268.441V81H272.441ZM269.303 73.9357C268.152 74.7328 266.763 75.5061 265.124 76.2484L266.774 79.8922C268.586 79.072 270.192 78.1852 271.58 77.2245L269.303 73.9357ZM265.124 76.2484C263.49 76.9883 261.722 77.6406 259.817 78.2029L260.949 82.0393C263.015 81.4297 264.958 80.7148 266.774 79.8922L265.124 76.2484ZM259.817 78.2029C257.923 78.7618 255.945 79.1983 253.882 79.5108L254.481 83.4657C256.715 83.1272 258.872 82.6523 260.949 82.0393L259.817 78.2029ZM253.848 79.5163C251.839 79.8563 249.851 80.0254 247.883 80.0254V84.0254C250.081 84.0254 252.293 83.8364 254.515 83.4602L253.848 79.5163ZM247.883 80.0254C243.197 80.0254 238.931 79.3385 235.066 77.9888L233.747 81.7651C238.085 83.28 242.803 84.0254 247.883 84.0254V80.0254ZM235.07 77.9904C231.221 76.6356 227.954 74.7426 225.237 72.3274L222.579 75.3171C225.722 78.1103 229.453 80.2537 233.742 81.7635L235.07 77.9904ZM225.237 72.3274C222.517 69.9098 220.387 67.0267 218.841 63.6611L215.206 65.3311C216.98 69.192 219.44 72.5264 222.579 75.3171L225.237 72.3274ZM218.85 63.6808C217.348 60.3163 216.582 56.5776 216.582 52.4355H212.582C212.582 57.0825 213.444 61.3842 215.197 65.3114L218.85 63.6808ZM227.768 52.4355C227.768 55.018 228.279 57.4766 229.307 59.7908L232.962 58.1662C232.168 56.3789 231.768 54.4755 231.768 52.4355H227.768ZM229.318 59.8148C230.378 62.1184 231.877 64.1429 233.796 65.8808L236.481 62.916C234.95 61.5289 233.779 59.9402 232.952 58.1422L229.318 59.8148ZM233.826 65.907C235.785 67.612 238.098 68.9487 240.738 69.9342L242.137 66.1869C239.894 65.3494 238.008 64.2448 236.452 62.8898L233.826 65.907ZM240.768 69.9452C243.489 70.9119 246.487 71.3789 249.738 71.3789V67.3789C246.87 67.3789 244.334 66.967 242.107 66.1759L240.768 69.9452ZM249.738 71.3789C251.814 71.3789 253.888 71.1885 255.958 70.809L255.237 66.8746C253.401 67.2112 251.568 67.3789 249.738 67.3789V71.3789ZM255.99 70.803C258.048 70.3913 260.028 69.8238 261.926 69.0989L260.499 65.362C258.817 66.0043 257.053 66.511 255.205 66.8806L255.99 70.803ZM261.915 69.1031C263.856 68.3754 265.669 67.4873 267.351 66.4362L265.231 63.0442C263.788 63.9463 262.216 64.7184 260.511 65.3578L261.915 69.1031ZM267.335 66.4459C269.057 65.392 270.574 64.1999 271.875 62.8635L269.008 60.074C267.965 61.1464 266.715 62.1353 265.247 63.0345L267.335 66.4459ZM272.441 61.4688V41.498H268.441V61.4688H272.441ZM271.691 39.9363C270.119 38.6792 268.455 37.6094 266.697 36.7307L264.908 40.3084C266.406 41.0573 267.834 41.9732 269.192 43.0598L271.691 39.9363ZM266.697 36.7307C264.974 35.869 263.211 35.1601 261.41 34.606L260.234 38.4291C261.819 38.9167 263.377 39.5425 264.908 40.3084L266.697 36.7307ZM261.41 34.606C259.613 34.053 257.795 33.6545 255.957 33.4118L255.433 37.3773C257.046 37.5903 258.646 37.9405 260.234 38.4291L261.41 34.606ZM255.994 33.4169C254.177 33.1427 252.4 33.0039 250.666 33.0039V37.0039C252.187 37.0039 253.763 37.1256 255.397 37.3721L255.994 33.4169ZM250.666 33.0039C247.165 33.0039 243.973 33.4842 241.119 34.4834L242.44 38.2588C244.794 37.435 247.526 37.0039 250.666 37.0039V33.0039ZM241.132 34.4786C238.35 35.4295 235.933 36.7704 233.921 38.5264L236.551 41.5401C238.12 40.171 240.065 39.0705 242.426 38.2636L241.132 34.4786ZM233.908 38.5384C231.941 40.2867 230.419 42.3566 229.357 44.7359L233.01 46.3657C233.837 44.5132 235.016 42.9047 236.565 41.528L233.908 38.5384ZM229.357 44.7359C228.291 47.1253 227.768 49.7001 227.768 52.4355H231.768C231.768 50.223 232.188 48.208 233.01 46.3657L229.357 44.7359ZM293.691 55.2676L291.923 54.333L293.691 55.2676ZM299.111 49.4082L300.231 51.0654L300.239 51.0602L300.246 51.055L299.111 49.4082ZM308.096 45.5996L308.572 47.542L308.585 47.5389L308.096 45.5996ZM331.875 45.0137L331.611 46.9961L331.613 46.9964L331.875 45.0137ZM344.033 47.4062L343.534 49.3429L346.277 50.0502L346.025 47.2284L344.033 47.4062ZM342.373 42.377L340.661 43.4112L340.666 43.4192L340.671 43.4272L342.373 42.377ZM338.418 38.373L337.286 40.0221L337.305 40.0347L337.323 40.047L338.418 38.373ZM332.363 35.7363L331.853 37.6701L331.86 37.6718L332.363 35.7363ZM306.729 37.4453L306.179 35.5222L306.171 35.5246L306.729 37.4453ZM301.064 39.5449L299.189 40.2396L299.941 42.2691L301.905 41.3599L301.064 39.5449ZM296.67 27.6797L295.995 25.7968L294.092 26.4786L294.794 28.3743L296.67 27.6797ZM303.652 25.5312L303.15 23.5955L303.143 23.5971L303.652 25.5312ZM311.318 23.8711L311.663 25.8412L311.675 25.8391L311.687 25.8368L311.318 23.8711ZM358.584 81V83H360.584V81H358.584ZM344.131 81H342.131V83H344.131V81ZM344.131 75.5801H346.131V72.0871L343.118 73.8552L344.131 75.5801ZM339.199 78.0703L338.399 76.2372L338.387 76.2427L339.199 78.0703ZM326.699 81.4883L326.431 79.5063L326.416 79.5083L326.401 79.5106L326.699 81.4883ZM307.266 80.5605L306.711 82.4822L306.716 82.4836L307.266 80.5605ZM293.594 70.4531L291.795 71.3275L291.802 71.3426L291.81 71.3576L293.594 70.4531ZM307.852 65.082L306.103 66.0533L306.111 66.0675L306.119 66.0815L307.852 65.082ZM310.195 67.377L309.122 69.0643L309.14 69.076L309.159 69.0873L310.195 67.377ZM314.297 68.9883L313.803 70.9263L313.825 70.9319L313.847 70.9371L314.297 68.9883ZM327.773 68.8906L327.397 66.9264L327.773 68.8906ZM344.131 61.4688L345.502 62.9252L346.131 62.3329V61.4688H344.131ZM344.131 58.9297H346.131V57.4119L344.669 57.0035L344.131 58.9297ZM337.539 57.3672L337.153 59.3295L337.158 59.3306L337.539 57.3672ZM331.338 56.3906L331.074 58.3731L331.092 58.3755L331.11 58.3776L331.338 56.3906ZM325.771 55.8535L325.658 57.8503L325.661 57.8504L325.771 55.8535ZM314.492 56.2441L314.884 58.2053L314.492 56.2441ZM310.146 57.709L311.082 59.4766L311.102 59.4659L311.122 59.4549L310.146 57.709ZM293.885 62.8359C293.885 60.3702 294.418 58.1718 295.46 56.2022L291.923 54.333C290.555 56.9206 289.885 59.7678 289.885 62.8359H293.885ZM295.46 56.2022C296.492 54.2495 298.059 52.5329 300.231 51.0654L297.992 47.751C295.346 49.5387 293.3 51.7284 291.923 54.333L295.46 56.2022ZM300.246 51.055C302.411 49.563 305.168 48.3775 308.572 47.542L307.619 43.6573C303.862 44.5795 300.629 45.933 297.976 47.7614L300.246 51.055ZM308.585 47.5389C312 46.6773 316.029 46.2324 320.693 46.2324V42.2324C315.787 42.2324 311.417 42.699 307.607 43.6604L308.585 47.5389ZM320.693 46.2324C324.144 46.2324 327.783 46.4857 331.611 46.9961L332.139 43.0312C328.155 42.5 324.339 42.2324 320.693 42.2324V46.2324ZM331.613 46.9964C335.465 47.5059 339.439 48.2872 343.534 49.3429L344.533 45.4696C340.294 44.3769 336.162 43.5632 332.137 43.0309L331.613 46.9964ZM346.025 47.2284C345.835 45.1019 345.185 43.1259 344.075 41.3267L340.671 43.4272C341.449 44.6879 341.905 46.0648 342.041 47.5841L346.025 47.2284ZM344.085 41.3427C342.97 39.4968 341.429 37.9522 339.512 36.6991L337.323 40.047C338.792 41.0074 339.888 42.1321 340.661 43.4112L344.085 41.3427ZM339.55 36.724C337.662 35.4283 335.42 34.4653 332.867 33.8008L331.86 37.6718C334.059 38.2443 335.854 39.0391 337.286 40.0221L339.55 36.724ZM332.874 33.8025C330.33 33.1312 327.484 32.8086 324.355 32.8086V36.8086C327.217 36.8086 329.709 37.1045 331.853 37.6701L332.874 33.8025ZM324.355 32.8086C322.65 32.8086 320.792 32.9109 318.785 33.1115L319.183 37.0916C321.083 36.9016 322.806 36.8086 324.355 36.8086V32.8086ZM318.785 33.1115C316.771 33.3129 314.696 33.6144 312.561 34.0147L313.298 37.9462C315.33 37.5653 317.291 37.2808 319.183 37.0916L318.785 33.1115ZM312.561 34.0147C310.416 34.4168 308.289 34.9194 306.179 35.5223L307.278 39.3684C309.27 38.7993 311.276 38.3253 313.298 37.9462L312.561 34.0147ZM306.171 35.5246C304.064 36.1363 302.081 36.8705 300.224 37.73L301.905 41.3599C303.564 40.5918 305.357 39.9262 307.286 39.366L306.171 35.5246ZM302.94 38.8503L298.545 26.9851L294.794 28.3743L299.189 40.2396L302.94 38.8503ZM297.344 29.5625C299.466 28.8027 301.738 28.1032 304.161 27.4654L303.143 23.5971C300.619 24.2614 298.236 24.9942 295.995 25.7968L297.344 29.5625ZM304.155 27.467C306.608 26.8298 309.111 26.2878 311.663 25.8412L310.974 21.901C308.317 22.3659 305.709 22.9306 303.15 23.5955L304.155 27.467ZM311.687 25.8368C314.236 25.359 316.783 24.9928 319.33 24.7381L318.932 20.758C316.27 21.0241 313.609 21.4067 310.95 21.9053L311.687 25.8368ZM319.33 24.7381C321.873 24.4838 324.329 24.3574 326.699 24.3574V20.3574C324.187 20.3574 321.597 20.4914 318.932 20.758L319.33 24.7381ZM326.699 24.3574C337.16 24.3574 344.546 27.0256 349.275 31.9889L352.171 29.2299C346.417 23.1905 337.788 20.3574 326.699 20.3574V24.3574ZM349.275 31.9889C354.02 36.97 356.584 44.8055 356.584 55.9023H360.584C360.584 44.2779 357.907 35.2514 352.171 29.2299L349.275 31.9889ZM356.584 55.9023V81H360.584V55.9023H356.584ZM358.584 79H344.131V83H358.584V79ZM346.131 81V75.5801H342.131V81H346.131ZM343.118 73.8552C341.698 74.6893 340.126 75.4839 338.399 76.2372L339.999 79.9034C341.854 79.0942 343.569 78.2287 345.143 77.3049L343.118 73.8552ZM338.387 76.2427C336.727 76.9804 334.898 77.6327 332.896 78.1958L333.979 82.0464C336.144 81.4376 338.156 80.7227 340.012 79.8979L338.387 76.2427ZM332.896 78.1958C330.913 78.7536 328.759 79.1918 326.431 79.5063L326.967 83.4703C329.457 83.1338 331.796 82.6604 333.979 82.0464L332.896 78.1958ZM326.401 79.5106C324.134 79.8523 321.711 80.0254 319.131 80.0254V84.0254C321.889 84.0254 324.512 83.8404 326.997 83.466L326.401 79.5106ZM319.131 80.0254C314.778 80.0254 311.015 79.5516 307.815 78.6375L306.716 82.4836C310.353 83.5226 314.499 84.0254 319.131 84.0254V80.0254ZM307.82 78.6389C304.617 77.7151 302.02 76.4603 299.977 74.9133L297.562 78.1023C300.076 80.0058 303.143 81.4529 306.711 82.4822L307.82 78.6389ZM299.977 74.9133C297.915 73.3522 296.398 71.5622 295.378 69.5487L291.81 71.3576C293.133 73.9665 295.067 76.2129 297.562 78.1023L299.977 74.9133ZM295.392 69.5787C294.392 67.5209 293.885 65.2827 293.885 62.8359H289.885C289.885 65.8579 290.517 68.6978 291.795 71.3275L295.392 69.5787ZM305.119 62.3477C305.119 63.6537 305.461 64.8973 306.103 66.0533L309.6 64.1107C309.266 63.509 309.119 62.9296 309.119 62.3477H305.119ZM306.119 66.0815C306.81 67.2785 307.855 68.2584 309.122 69.0643L311.269 65.6896C310.387 65.1283 309.87 64.5783 309.584 64.0826L306.119 66.0815ZM309.159 69.0873C310.45 69.8701 312.016 70.4708 313.803 70.9263L314.791 67.0503C313.257 66.6594 312.089 66.1859 311.232 65.6666L309.159 69.0873ZM313.847 70.9371C315.73 71.3716 317.924 71.5742 320.4 71.5742V67.5742C318.124 67.5742 316.249 67.3862 314.747 67.0395L313.847 70.9371ZM320.4 71.5742C323.06 71.5742 325.644 71.3355 328.15 70.8548L327.397 66.9264C325.151 67.3572 322.819 67.5742 320.4 67.5742V71.5742ZM328.15 70.8548C330.62 70.3811 332.938 69.7518 335.1 68.9627L333.728 65.2053C331.788 65.9135 329.679 66.4887 327.397 66.9264L328.15 70.8548ZM335.1 68.9627C337.25 68.1778 339.217 67.2655 340.995 66.22L338.966 62.7722C337.423 63.6798 335.68 64.4927 333.728 65.2053L335.1 68.9627ZM340.995 66.22C342.751 65.1869 344.262 64.0919 345.502 62.9252L342.76 60.0123C341.786 60.929 340.53 61.8522 338.966 62.7722L340.995 66.22ZM346.131 61.4688V58.9297H342.131V61.4688H346.131ZM344.669 57.0035C342.405 56.371 340.156 55.8376 337.92 55.4038L337.158 59.3306C339.284 59.7431 341.429 60.2514 343.593 60.8559L344.669 57.0035ZM337.926 55.4049C335.73 54.9723 333.609 54.6382 331.566 54.4037L331.11 58.3776C333.038 58.5988 335.052 58.9157 337.153 59.3295L337.926 55.4049ZM331.602 54.4082C329.604 54.1418 327.697 53.9574 325.882 53.8566L325.661 57.8504C327.361 57.9449 329.165 58.1187 331.074 58.3731L331.602 54.4082ZM325.885 53.8567C324.133 53.7576 322.58 53.707 321.23 53.707V57.707C322.485 57.707 323.96 57.7542 325.658 57.8503L325.885 53.8567ZM321.23 53.707C318.453 53.707 316.065 53.89 314.1 54.283L314.884 58.2053C316.5 57.8822 318.604 57.707 321.23 57.707V53.707ZM314.1 54.283C312.187 54.6656 310.521 55.2089 309.171 55.9631L311.122 59.4549C311.986 58.9721 313.217 58.5388 314.884 58.2053L314.1 54.283ZM309.211 55.9414C307.877 56.6473 306.756 57.5849 306.058 58.8314L309.548 60.7858C309.761 60.4047 310.202 59.9425 311.082 59.4766L309.211 55.9414ZM306.058 58.8314C305.445 59.9248 305.119 61.1055 305.119 62.3477H309.119C309.119 61.832 309.249 61.32 309.548 60.7858L306.058 58.8314ZM397.508 35.3945L399.089 36.6188L401.585 33.3945H397.508V35.3945ZM367.967 35.3945H365.967V37.3945H367.967V35.3945ZM367.967 23.3828V21.3828H365.967V23.3828H367.967ZM424.314 23.3828L425.892 24.6123L428.409 21.3828H424.314V23.3828ZM388.768 68.9883L387.19 67.7588L384.673 70.9883H388.768V68.9883ZM422.361 68.9883H424.361V66.9883H422.361V68.9883ZM422.361 81V83H424.361V81H422.361ZM362.205 81L360.624 79.7758L358.128 83H362.205V81ZM397.508 33.3945H367.967V37.3945H397.508V33.3945ZM369.967 35.3945V23.3828H365.967V35.3945H369.967ZM367.967 25.3828H424.314V21.3828H367.967V25.3828ZM422.737 22.1533L387.19 67.7588L390.345 70.2178L425.892 24.6123L422.737 22.1533ZM388.768 70.9883H422.361V66.9883H388.768V70.9883ZM420.361 68.9883V81H424.361V68.9883H420.361ZM422.361 79H362.205V83H422.361V79ZM363.787 82.2242L399.089 36.6188L395.926 34.1703L360.624 79.7758L363.787 82.2242Z" fill="#E64614" mask="url(#path-2-outside-1_1_2426)"/>
</svg>
