<svg width="11" height="8" viewBox="0 0 11 8" fill="none" xmlns="http://www.w3.org/2000/svg">
<path d="M10.8515 4.35346C10.9453 4.2597 10.9979 4.13254 10.9979 3.99996C10.9979 3.86738 10.9453 3.74022 10.8515 3.64646L7.85155 0.64646C7.75725 0.555381 7.63094 0.504983 7.49985 0.506122C7.36875 0.507262 7.24334 0.559846 7.15064 0.65255C7.05793 0.745254 7.00535 0.87066 7.00421 1.00176C7.00307 1.13286 7.05347 1.25916 7.14455 1.35346L9.29105 3.49996H0.498047C0.365439 3.49996 0.238262 3.55264 0.144493 3.64641C0.0507253 3.74017 -0.00195312 3.86735 -0.00195312 3.99996C-0.00195312 4.13257 0.0507253 4.25974 0.144493 4.35351C0.238262 4.44728 0.365439 4.49996 0.498047 4.49996H9.29105L7.14455 6.64646C7.05347 6.74076 7.00307 6.86706 7.00421 6.99816C7.00535 7.12926 7.05793 7.25466 7.15064 7.34737C7.24334 7.44007 7.36875 7.49266 7.49985 7.4938C7.63094 7.49494 7.75725 7.44454 7.85155 7.35346L10.8515 4.35346Z" fill="#E64614"/>
</svg>
