<svg width="25" height="24" viewBox="0 0 25 24" fill="none" xmlns="http://www.w3.org/2000/svg">
<path d="M21.1366 1.9999H4.19662C4.0062 1.99725 3.81712 2.03214 3.64019 2.10258C3.46325 2.17302 3.30193 2.27762 3.16542 2.41041C3.02892 2.5432 2.9199 2.70158 2.84462 2.87651C2.76933 3.05143 2.72923 3.23947 2.72662 3.4299V20.5699C2.72923 20.7603 2.76933 20.9484 2.84462 21.1233C2.9199 21.2982 3.02892 21.4566 3.16542 21.5894C3.30193 21.7222 3.46325 21.8268 3.64019 21.8972C3.81712 21.9676 4.0062 22.0025 4.19662 21.9999H21.1366C21.327 22.0025 21.5161 21.9676 21.6931 21.8972C21.87 21.8268 22.0313 21.7222 22.1678 21.5894C22.3043 21.4566 22.4133 21.2982 22.4886 21.1233C22.5639 20.9484 22.604 20.7603 22.6066 20.5699V3.4299C22.604 3.23947 22.5639 3.05143 22.4886 2.87651C22.4133 2.70158 22.3043 2.5432 22.1678 2.41041C22.0313 2.27762 21.87 2.17302 21.6931 2.10258C21.5161 2.03214 21.327 1.99725 21.1366 1.9999ZM8.75662 18.7399H5.75662V9.7399H8.75662V18.7399ZM7.25662 8.4799C6.84289 8.4799 6.44609 8.31554 6.15354 8.02298C5.86098 7.73043 5.69662 7.33363 5.69662 6.9199C5.69662 6.50616 5.86098 6.10937 6.15354 5.81681C6.44609 5.52425 6.84289 5.3599 7.25662 5.3599C7.47632 5.33498 7.6988 5.35675 7.9095 5.42378C8.1202 5.49081 8.31436 5.60159 8.47928 5.74886C8.6442 5.89613 8.77615 6.07657 8.86649 6.27838C8.95684 6.48018 9.00354 6.69879 9.00354 6.9199C9.00354 7.141 8.95684 7.35961 8.86649 7.56141C8.77615 7.76322 8.6442 7.94366 8.47928 8.09093C8.31436 8.23821 8.1202 8.34898 7.9095 8.41601C7.6988 8.48304 7.47632 8.50481 7.25662 8.4799ZM19.5766 18.7399H16.5766V13.9099C16.5766 12.6999 16.1466 11.9099 15.0566 11.9099C14.7193 11.9124 14.3908 12.0182 14.1155 12.2131C13.8401 12.408 13.6311 12.6826 13.5166 12.9999C13.4384 13.2349 13.4045 13.4825 13.4166 13.7299V18.7299H10.4166C10.4166 18.7299 10.4166 10.5499 10.4166 9.7299H13.4166V10.9999C13.6892 10.527 14.0855 10.1374 14.5631 9.8731C15.0406 9.60878 15.5812 9.47975 16.1266 9.4999C18.1266 9.4999 19.5766 10.7899 19.5766 13.5599V18.7399Z" fill="white"/>
</svg>
