<svg width="16" height="15" viewBox="0 0 16 15" fill="none" xmlns="http://www.w3.org/2000/svg">
<path d="M12.5472 14.9558C12.0141 15.3356 8.59316 12.9284 7.93798 12.9231C7.2828 12.9178 3.8234 15.2697 3.29647 14.8814C2.76955 14.4931 4.00832 10.505 3.81091 9.88208C3.61349 9.25914 0.301324 6.70512 0.508801 6.08541C0.716323 5.46571 4.90282 5.40815 5.43596 5.0284C5.96911 4.6487 7.38151 0.718393 8.03674 0.723638C8.69187 0.728929 10.0405 4.68145 10.5674 5.06972C11.0943 5.45796 15.2794 5.58293 15.4769 6.20587C15.6743 6.82881 12.3212 9.3292 12.1137 9.9489C11.9062 10.5686 13.0803 14.5761 12.5472 14.9558Z" fill="#F8B84E"/>
</svg>
