<svg width="25" height="24" viewBox="0 0 25 24" fill="none" xmlns="http://www.w3.org/2000/svg">
<path d="M21.0666 7.1001C20.9666 7.0001 20.8666 7.0001 20.6666 7.0001C20.3666 7.0001 20.1666 7.0001 19.8666 6.9001C18.1666 6.5001 16.9666 5.2001 16.8666 3.5001V3.1001C16.8666 2.8001 16.6666 2.6001 16.3666 2.6001H13.2666C12.9666 2.6001 12.7666 2.8001 12.7666 3.1001V15.6001C12.7666 16.8001 11.7666 17.7001 10.6666 17.7001C9.96663 17.7001 9.36663 17.4001 8.96663 16.9001C8.26663 16.0001 8.46663 14.6001 9.36663 13.9001C9.76663 13.6001 10.1666 13.6001 10.9666 13.6001C11.0666 13.6001 11.2666 13.6001 11.3666 13.5001C11.4666 13.4001 11.5666 13.3001 11.5666 13.1001V9.8001C11.5666 9.6001 11.3666 9.3001 11.1666 9.3001C9.56663 9.1001 7.96663 9.5001 6.76663 10.5001C5.66663 11.5001 4.86663 12.9001 4.66663 14.6001C4.36663 16.5001 5.06663 18.5001 6.36663 19.8001C7.56663 21.1001 9.26663 21.7001 10.8666 21.7001C12.4666 21.7001 14.0666 21.1001 15.2666 19.9001C16.4666 18.7001 17.1666 17.1001 17.1666 15.4001V9.9001C18.3666 10.5001 19.6666 10.9001 20.9666 10.9001C21.2666 10.9001 21.4666 10.7001 21.4666 10.4001V7.4001C21.2666 7.3001 21.1666 7.2001 21.0666 7.1001Z" fill="white"/>
</svg>
