<svg width="25" height="24" viewBox="0 0 25 24" fill="none" xmlns="http://www.w3.org/2000/svg">
<path d="M23.6666 9.70998C23.7161 8.27864 23.4031 6.858 22.7566 5.57998C22.318 5.05558 21.7093 4.70169 21.0366 4.57998C18.2541 4.32751 15.4602 4.22403 12.6666 4.26998C9.88327 4.22194 7.09933 4.32208 4.32662 4.56998C3.77844 4.6697 3.27114 4.92683 2.86662 5.30998C1.96662 6.13998 1.86662 7.55998 1.76662 8.75998C1.62153 10.9175 1.62153 13.0824 1.76662 15.24C1.79555 15.9154 1.89612 16.5858 2.06662 17.24C2.1872 17.745 2.43115 18.2123 2.77662 18.6C3.18389 19.0034 3.70301 19.2752 4.26662 19.38C6.42254 19.6461 8.59484 19.7564 10.7666 19.71C14.2666 19.76 17.3366 19.71 20.9666 19.43C21.5441 19.3316 22.0778 19.0595 22.4966 18.65C22.7766 18.3699 22.9857 18.0271 23.1066 17.65C23.4643 16.5526 23.6399 15.4041 23.6266 14.25C23.6666 13.69 23.6666 10.31 23.6666 9.70998ZM10.4066 14.85V8.65998L16.3266 11.77C14.6666 12.69 12.4766 13.73 10.4066 14.85Z" fill="white"/>
</svg>
